<?xml version="1.0" encoding="UTF-8" standalone="no"?>
<!DOCTYPE svg PUBLIC "-//W3C//DTD SVG 1.1//EN" "http://www.w3.org/Graphics/SVG/1.1/DTD/svg11.dtd">
<svg width="100%" height="100%" viewBox="0 0 1010 1080" version="1.1" xmlns="http://www.w3.org/2000/svg" xmlns:xlink="http://www.w3.org/1999/xlink" xml:space="preserve" xmlns:serif="http://www.serif.com/" style="fill-rule:evenodd;clip-rule:evenodd;stroke-linejoin:round;stroke-miterlimit:2;">
    <g transform="matrix(1,0,0,1,-24406.3,-178.141)">
        <g id="Final_Logo" transform="matrix(0.37997,0,0,0.951626,20062.7,178.141)">
            <rect x="11431.6" y="0" width="2656.79" height="1134.87" style="fill:none;"/>
            <clipPath id="_clip1">
                <rect x="11431.6" y="0" width="2656.79" height="1134.87"/>
            </clipPath>
            <g clip-path="url(#_clip1)">
                <g transform="matrix(0.996616,0,0,0.397934,11260.1,-31.4522)">
                    <path d="M597.95,2792.59C649.9,2842.64 813.32,2813.94 885.27,2819.19C1000.14,2827.57 1217.03,2930.28 1332.21,2930.92C1725.94,2933.14 1752.54,2781.94 1763.18,2638.28C1763.18,2638.28 1930.11,2564.83 1986.65,2542.51C2048.49,2518.1 2179.7,2486.24 2236.72,2452.06C2267.42,2433.66 2311.46,2372.95 2343.13,2356.29C2373.4,2340.37 2446.71,2341.78 2476.15,2324.37C2493.17,2314.3 2534.36,2284.97 2529.36,2265.84C2520.85,2233.28 2433.92,2232.85 2401.66,2223.27C2371.35,2214.28 2310.9,2191.68 2279.28,2191.35C2250.57,2191.04 2188.82,2237.24 2167.55,2217.95C2145.67,2198.12 2163.82,2122.91 2183.51,2100.9C2273.96,1999.81 2373.66,2066.81 2369.73,2015.77C2364.41,1946.6 2199.47,1872.11 2332.49,1483.7C2431.76,1193.84 2700.28,1272.78 2662.37,1164.46C2625.13,1058.05 2647.31,736.68 2662.37,595.15C2688.97,345.08 2837.95,142.89 2837.95,142.89C2837.95,142.89 2806.03,78.7 2688.97,79.04C2541.32,79.47 2182.95,194.38 2082.41,302.51C1800.42,605.79 1191.31,1099.03 1087.45,1467.73C1059.4,1567.32 1145.98,1877.42 1145.98,1877.42C1145.98,1877.42 906.7,1713.41 848.02,1637.99C777.44,1547.28 704.71,1324.28 661.8,1217.66C603.15,1071.94 447.38,959.23 447.38,627.07C447.38,366.36 557.64,302.96 550.06,259.94C543.71,223.9 447.88,206.4 411.72,212.05C365.72,219.24 286.69,283.86 262.74,323.78C186.58,450.74 176.79,761.07 172.29,909.05C168.35,1038.57 214.18,1295.71 220.18,1425.15C221.72,1458.37 205.37,1528.39 220.18,1558.17C281.57,1681.54 553.82,1802.42 661.79,1888.05C816.09,2010.43 867.72,2112.26 816.09,2175.37C720.32,2292.42 480.89,2239.22 480.89,2239.22C480.89,2239.22 500.99,2336.21 512.81,2366.92C520.93,2388.02 552.08,2424.36 555.38,2446.73C559.33,2473.57 531.51,2526.14 534.1,2553.14C537.11,2584.61 573.89,2639.63 581.99,2670.19C589.89,2700.01 575.73,2771.16 597.95,2792.57L597.95,2792.59Z" style="fill:rgb(143,60,255);fill-rule:nonzero;"/>
                </g>
            </g>
        </g>
    </g>
</svg>
